<svg xmlns="http://www.w3.org/2000/svg" viewBox="0 0 23 29" width="23" height="29"><path d="M8.57.69c0-.38-.31-.69-.7-.69s-.7.31-.7.68v15.63l.01 11.21c0 .38.31.68.7.68s.7-.31.7-.68l-.01-11.44V.69zM4.27 0c-.39 0-.7.31-.7.68V25.6c0 .38.31.68.7.68s.7-.31.7-.68V.69c0-.38-.31-.69-.7-.69zm7.21 0c-.39 0-.7.31-.7.68v27.56c0 .38.31.68.7.68s.7-.31.7-.68V.69c0-.38-.31-.69-.7-.69zM.7 0C.31 0 0 .31 0 .69v16.93c0 .38.31.68.7.68s.7-.31.7-.68V.69A.7.7 0 0 0 .7 0z" fill="#1062fb"/><path d="M14.39,0v28.55C19.34,27.31,23,22.92,23,17.7V0H14.39z" fill="#1d1c29"/></svg>