<svg xmlns="http://www.w3.org/2000/svg" viewBox="0 0 213 38" width="213" height="38" fill="#1d1c29"><path d="M17.87 19.75L1.88 3.18H0V30.6h5.65V14.44l16.03 16.65h1.84V3.67h-5.65v16.08zm28.14-7.06c-.85-.84-1.88-1.51-3.07-2-1.2-.49-2.52-.73-3.98-.73-1.54 0-2.96.27-4.29.82-1.33.54-2.48 1.29-3.45 2.25-.98.95-1.74 2.07-2.3 3.35s-.84 2.67-.84 4.16c0 1.5.28 2.88.86 4.16a10.42 10.42 0 0 0 2.37 3.35c1 .95 2.2 1.7 3.6 2.24s2.92.82 4.56.82c1.59 0 3.07-.27 4.44-.8s2.64-1.27 3.81-2.22l-2.3-3.75a11.95 11.95 0 0 1-2.7 1.49c-.93.37-1.96.55-3.07.55-1.51 0-2.78-.34-3.81-1.02s-1.73-1.67-2.09-2.98h14.56l.25-1.35c.08-.54.13-1.1.13-1.67 0-1.31-.23-2.53-.69-3.67-.48-1.16-1.14-2.16-1.99-3zm-12.28 5.79c.34-1.28.95-2.28 1.84-3s1.95-1.08 3.18-1.08c1.2 0 2.23.35 3.1 1.06.86.71 1.33 1.71 1.38 3.02h-9.5zm44.73 0l-2.01-.82c-.75-.3-1.3-.57-1.65-.82-.35-.24-.52-.57-.52-.98 0-.49.2-.85.61-1.08s.94-.35 1.61-.35a6.34 6.34 0 0 1 2.45.49 7.3 7.3 0 0 1 2.2 1.43L84 12.96c-1.9-2.04-4.38-3.06-7.45-3.06-1.09 0-2.1.14-3.03.41s-1.75.67-2.43 1.18c-.68.52-1.21 1.15-1.59 1.9s-.56 1.61-.56 2.59c0 .79.13 1.49.4 2.1a5.51 5.51 0 0 0 1.11 1.65c.47.49 1.06.92 1.76 1.31.7.38 1.49.75 2.38 1.1l2.22.9c.64.27 1.16.53 1.55.77s.59.6.59 1.06c0 .57-.26.99-.78 1.26s-1.14.41-1.86.41c-1.11 0-2.15-.24-3.1-.73s-1.86-1.16-2.72-2l-2.85 3.35c.92 1.2 2.12 2.15 3.6 2.86s3.14 1.06 4.98 1.06c1.11 0 2.17-.14 3.16-.43.99-.28 1.85-.7 2.57-1.25.72-.54 1.3-1.22 1.72-2.02s.63-1.72.63-2.75c0-1.58-.5-2.81-1.51-3.71-1.02-.89-2.46-1.7-4.33-2.44zm29.15-5.53c-.88-.94-1.94-1.67-3.18-2.2s-2.59-.8-4.04-.8-2.74.25-3.87.76c-1.13.5-2.06 1.23-2.78 2.18V10.4h-5.19v27.54h5.65v-9.26c1.51 1.61 3.57 2.41 6.2 2.41 1.45 0 2.79-.27 4.02-.8s2.29-1.27 3.18-2.22 1.59-2.07 2.09-3.36.75-2.7.75-4.22-.25-2.92-.75-4.2c-.51-1.29-1.2-2.4-2.08-3.34zm-3.33 9.9c-.28.68-.66 1.26-1.15 1.73s-1.05.84-1.69 1.1a5.42 5.42 0 0 1-2.05.39c-.67 0-1.32-.11-1.95-.33s-1.19-.56-1.69-1.02-.9-1.05-1.19-1.75-.44-1.54-.44-2.49c0-.98.15-1.82.46-2.51s.71-1.26 1.19-1.71a4.83 4.83 0 0 1 1.67-1c.63-.22 1.28-.33 1.95-.33a5.42 5.42 0 0 1 2.05.39c.64.26 1.21.63 1.69 1.12.49.49.87 1.08 1.15 1.77s.42 1.46.42 2.3c0 .88-.14 1.66-.42 2.34zm25.49-10.71c-.78-.72-1.72-1.27-2.81-1.63-1.09-.37-2.29-.55-3.6-.55-3.65 0-6.65 1.39-9 4.16l2.89 3.39c.86-.87 1.72-1.55 2.57-2.04s1.82-.73 2.91-.73c1.31 0 2.29.31 2.93.94s.96 1.5.96 2.61v.9h-5.19c-2.42 0-4.34.52-5.75 1.55s-2.12 2.48-2.12 4.33c0 .87.16 1.67.48 2.41a5.34 5.34 0 0 0 1.4 1.9c.61.53 1.37.95 2.26 1.26s1.9.47 3.01.47c1.37 0 2.59-.22 3.66-.65 1.07-.44 1.97-1.03 2.7-1.8v1.96h5.15v-12c0-1.44-.22-2.7-.65-3.78-.41-1.08-1.02-1.98-1.8-2.7zm-3.14 10.91c0 1.2-.42 2.16-1.28 2.9-.85.73-1.89 1.1-3.12 1.1-.86 0-1.57-.19-2.12-.57-.54-.38-.82-.92-.82-1.63 0-1.36.96-2.04 2.89-2.04h4.44l.01.24zm18.75-12.22c-.98.45-1.81 1.11-2.51 1.98V10.4h-5.19v20.2h5.65V20.52c0-1.82.52-3.16 1.55-4s2.36-1.26 3.98-1.26h1.51V10.4c-.5-.16-1.1-.24-1.8-.24-1.16 0-2.22.22-3.19.67zm28.33-.43h-6.69l-7.45 8.65V0h-5.65v30.6h5.65V19.46l8.33 11.14h6.44l-8.41-11.22 7.78-8.98zm19.56 2.29c-.85-.84-1.87-1.51-3.07-2s-2.53-.73-3.97-.73c-1.54 0-2.96.27-4.29.82-1.33.54-2.48 1.29-3.45 2.25-.98.95-1.74 2.07-2.3 3.35s-.84 2.67-.84 4.16c0 1.5.29 2.88.86 4.16a10.42 10.42 0 0 0 2.37 3.35c1 .95 2.2 1.7 3.6 2.24s2.92.82 4.56.82c1.59 0 3.07-.27 4.44-.8s2.64-1.27 3.81-2.22l-2.3-3.75a11.95 11.95 0 0 1-2.7 1.49c-.93.37-1.96.55-3.07.55-1.51 0-2.78-.34-3.81-1.02s-1.73-1.67-2.09-2.98h14.56a13.44 13.44 0 0 0 .25-1.35c.09-.54.13-1.1.13-1.67 0-1.31-.23-2.53-.69-3.67-.49-1.16-1.15-2.16-2-3zm-12.28 5.79c.33-1.28.95-2.28 1.84-3s1.95-1.08 3.18-1.08c1.2 0 2.23.35 3.1 1.06.86.71 1.32 1.71 1.38 3.02h-9.5zm30.21-8.32c-1.14 0-2.2.22-3.18.67s-1.81 1.11-2.51 1.98V10.4h-5.19v20.2h5.65V20.52c0-1.82.52-3.16 1.55-4s2.36-1.26 3.98-1.26h1.5V10.4c-.5-.16-1.1-.24-1.8-.24zm-145.37.24h-4.62V5.32h-5.65v5.08h-4.62v4.66h4.62v15.49h5.65V15.06h4.62V10.4z"/></svg>